<?xml version="1.0" standalone="no"?>
<!DOCTYPE svg PUBLIC "-//W3C//DTD SVG 20010904//EN"
 "http://www.w3.org/TR/2001/REC-SVG-20010904/DTD/svg10.dtd">
<svg version="1.0" xmlns="http://www.w3.org/2000/svg"
 width="1536.000000pt" height="768.000000pt" viewBox="0 0 1536.000000 768.000000"
 preserveAspectRatio="xMidYMid meet">
<metadata>
Created by potrace 1.16, written by Peter Selinger 2001-2019
</metadata>
<g transform="translate(0.000000,768.000000) scale(0.100000,-0.100000)"
fill="#4e73df" stroke="none">
<path d="M7525 7553 c-656 -43 -1226 -285 -1724 -733 -232 -208 -478 -541
-618 -837 l-53 -113 -2179 -2 -2179 -3 244 -307 245 -308 1845 0 1846 0 -7
-67 c-4 -38 -10 -71 -14 -75 -4 -5 -595 -9 -1314 -10 l-1306 -3 240 -302 241
-303 1068 0 c588 0 1071 -3 1073 -7 2 -5 8 -41 11 -80 l7 -73 -552 -2 -551 -3
241 -302 241 -303 400 0 400 0 50 -107 c121 -256 309 -528 513 -740 543 -562
1288 -865 2067 -840 644 21 1212 238 1707 654 298 250 555 586 719 939 l43 94
401 0 400 0 241 303 241 302 -552 3 -552 2 7 73 c4 39 9 75 12 80 2 4 485 7
1072 7 l1068 0 241 303 241 302 -1312 5 -1312 5 -7 45 c-3 25 -7 57 -7 73 l-1
27 1844 0 1845 0 244 308 245 307 -2182 3 -2181 2 -50 107 c-205 439 -560 847
-975 1122 -115 76 -335 194 -460 246 -227 96 -507 167 -765 194 -107 11 -368
20 -450 14z m525 -641 c383 -69 738 -239 1038 -497 411 -354 675 -864 733
-1414 16 -152 6 -412 -20 -566 -52 -298 -164 -580 -326 -824 -341 -514 -872
-852 -1485 -948 -169 -26 -480 -24 -655 6 -887 147 -1590 825 -1764 1700 -61
305 -52 667 25 966 193 752 811 1362 1567 1545 202 49 306 60 552 56 166 -3
248 -9 335 -24z"/>
<path d="M7692 5419 c-123 -21 -278 -105 -365 -198 -251 -269 -246 -673 13
-931 80 -81 184 -143 290 -174 85 -25 212 -30 305 -12 80 16 234 84 284 126
l23 20 -43 73 c-23 39 -53 89 -66 109 l-23 38 -49 -35 c-90 -65 -135 -79 -246
-79 -81 0 -111 4 -158 23 -82 32 -178 124 -219 210 -30 61 -33 74 -33 166 1
117 21 181 82 256 147 180 404 211 583 69 l39 -31 15 23 c8 13 37 61 65 108
l50 84 -22 24 c-12 13 -62 44 -112 68 -134 66 -269 87 -413 63z"/>
<path d="M9900 1110 l0 -130 -40 0 -40 0 0 -80 0 -80 39 0 39 0 4 -132 c3
-150 18 -195 85 -261 60 -60 114 -81 226 -85 l97 -4 0 80 0 79 -79 5 c-138 8
-164 40 -170 205 l-3 113 126 0 126 0 0 80 0 79 -122 3 -123 3 -3 128 -3 127
-79 0 -80 0 0 -130z"/>
<path d="M4161 1194 c-120 -32 -232 -126 -286 -240 -125 -264 39 -577 329
-627 87 -15 179 1 265 45 90 46 92 52 41 131 l-42 67 -32 -25 c-178 -136 -437
-8 -438 218 -1 224 252 357 432 226 l38 -28 42 67 c49 77 47 84 -26 124 -102
55 -218 70 -323 42z"/>
<path d="M6161 1194 c-120 -32 -232 -126 -286 -240 -125 -264 39 -577 329
-627 87 -15 179 1 265 45 90 46 92 52 41 131 l-42 67 -32 -25 c-178 -136 -437
-8 -438 218 -1 224 252 357 432 226 l38 -28 42 67 c49 77 47 84 -26 124 -102
55 -218 70 -323 42z"/>
<path d="M4690 771 l0 -431 85 0 85 0 0 84 0 84 128 4 c121 3 133 6 194 36 77
38 130 92 166 171 22 46 26 71 26 136 0 65 -4 90 -26 136 -36 79 -89 133 -166
171 l-66 33 -213 3 -213 3 0 -430z m413 245 c39 -16 82 -61 96 -99 24 -62 9
-131 -37 -181 -43 -45 -80 -56 -197 -56 l-105 0 0 175 0 175 105 0 c68 0 117
-5 138 -14z"/>
<path d="M6884 1001 c-99 -26 -177 -92 -222 -190 -22 -46 -27 -71 -27 -141 0
-77 3 -92 33 -152 36 -73 86 -123 161 -159 70 -34 187 -33 261 2 67 32 123 87
158 154 37 72 43 206 13 286 -45 119 -152 197 -279 204 -37 2 -81 1 -98 -4z
m118 -161 c25 0 89 -59 104 -97 48 -113 -30 -244 -144 -246 -96 -1 -165 73
-165 178 0 54 18 98 51 128 27 25 92 48 117 42 11 -3 28 -5 37 -5z"/>
<path d="M10640 997 c-97 -27 -185 -109 -217 -200 -29 -83 -24 -197 11 -274
33 -72 94 -134 164 -166 71 -32 189 -30 262 4 49 23 130 90 130 108 0 4 -27
33 -60 66 -33 33 -60 54 -60 48 0 -6 -14 -24 -31 -41 -32 -32 -112 -57 -136
-44 -8 5 39 68 138 187 82 98 149 183 149 187 0 18 -78 83 -126 105 -64 29
-162 38 -224 20z m113 -155 c15 -6 4 -25 -74 -130 -102 -136 -114 -141 -113
-44 1 88 36 141 111 168 43 15 51 15 76 6z"/>
<path d="M8563 970 c-33 -17 -68 -39 -78 -50 -18 -20 -18 -20 -52 20 -19 22
-43 40 -54 40 -18 0 -19 -13 -19 -445 l0 -445 80 0 80 0 0 145 c0 80 2 145 4
145 2 0 29 -12 61 -26 50 -23 67 -26 134 -22 129 8 213 66 268 183 24 52 28
73 28 150 0 82 -3 97 -33 157 -57 117 -157 178 -291 178 -55 0 -79 -5 -128
-30z m207 -151 c97 -55 112 -208 28 -286 -107 -100 -271 -20 -271 133 0 134
131 216 243 153z"/>
<path d="M7390 665 l0 -325 79 0 80 0 3 219 c3 216 3 220 27 245 31 33 71 34
108 2 l28 -24 3 -221 3 -221 80 0 79 0 0 220 0 221 25 24 c15 16 36 25 55 25
19 0 40 -9 55 -25 l25 -24 0 -221 0 -220 80 0 80 0 0 233 c0 223 -1 234 -24
283 -44 94 -130 140 -245 132 -45 -3 -68 -11 -96 -33 -25 -19 -42 -25 -50 -19
-60 44 -72 49 -139 52 -60 3 -78 0 -121 -22 l-49 -26 -26 25 c-14 14 -34 25
-43 25 -16 0 -17 -26 -17 -325z"/>
<path d="M9130 795 c0 -106 5 -216 11 -244 22 -106 105 -187 214 -212 71 -16
131 -5 201 37 l58 35 22 -28 c13 -15 23 -31 24 -35 0 -5 9 -8 20 -8 20 0 20 7
20 325 l0 325 -80 0 -80 0 0 -199 c0 -189 -1 -200 -23 -232 -12 -19 -38 -42
-57 -51 -68 -34 -145 11 -161 94 -4 24 -8 121 -9 216 l0 172 -80 0 -80 0 0
-195z"/>
<path d="M11110 660 l0 -320 79 0 79 0 4 198 c3 174 5 200 22 225 30 44 65 57
161 57 l85 0 0 81 0 81 -112 -4 c-113 -3 -134 -9 -199 -51 -26 -17 -26 -17
-50 18 -15 22 -32 35 -46 35 l-23 0 0 -320z"/>
</g>
</svg>
